<svg width="24" height="24" viewBox="0 0 24 24" fill="none" xmlns="http://www.w3.org/2000/svg">
<g clip-path="url(#clip0_459_2622)">
<path d="M14.0537 9.95215L13.0298 16.0953L7.85163 21.2735L1.7085 22.2973C3.97034 24.5592 7.63752 24.5592 9.89937 22.2973L14.0537 18.143C14.7997 17.397 15.2997 16.4981 15.5536 15.5472L17.0898 14.011L15.5256 12.4468C15.2638 11.5334 14.7732 10.6716 14.0537 9.95215Z" fill="#83A3AB"/>
<path d="M8.86317 21.2367L13.0175 17.0823C15.2794 14.8205 15.7378 11.6117 14.0414 9.91532C11.7795 7.65347 8.11236 7.65347 5.85051 9.91532L1.69614 14.0697C-0.565706 16.3315 -0.565706 19.9987 1.69614 22.2606C3.39251 23.9569 6.60132 23.4985 8.86317 21.2367ZM3.74388 20.2128C2.61298 19.0819 2.61298 17.2483 3.74388 16.1174L7.89825 11.963C9.02915 10.8321 10.8627 10.8321 11.9937 11.963L12.4409 15.4824C12.3166 15.6925 12.1664 15.886 11.9937 16.0584L7.83932 20.2128C6.70837 21.3437 4.87478 21.3437 3.74388 20.2128ZM22.3035 1.70215L21.1374 7.70309L15.7485 14.1158C15.7432 14.5991 15.6775 15.0799 15.5532 15.547C16.5043 15.2934 17.4029 14.7935 18.149 14.0474L22.3035 9.89297C24.5652 7.63127 24.5652 3.96385 22.3035 1.70215Z" fill="#93B7C0"/>
<path d="M21.2797 8.86911C23.5414 6.60741 23.9999 3.39841 22.3036 1.70214C20.0419 -0.559566 16.3744 -0.559566 14.1127 1.70214L9.95824 5.8566C7.69654 8.1183 7.69654 11.7858 9.95824 14.0475C10.6777 14.7669 11.5397 15.2577 12.453 15.5191C13.1093 14.4089 12.9605 12.9543 12.0059 11.9997C10.8749 10.8687 10.8749 9.03534 12.0059 7.90429L16.1604 3.74983C17.2911 2.61917 19.1248 2.61879 20.2558 3.74983C21.3869 4.88087 21.3865 6.71456 20.2558 7.84527L16.1014 11.9997C15.9289 12.1724 15.7353 12.3226 15.5253 12.4468C15.6804 12.9893 15.7556 13.5516 15.7486 14.1158C16.2304 13.8185 16.6949 13.4539 17.1252 13.0236L21.2797 8.86911Z" fill="#ACD5DF"/>
</g>
<defs>
<clipPath id="clip0_459_2622">
<rect width="24" height="24" fill="white"/>
</clipPath>
</defs>
</svg>
